<?xml version="1.0" encoding="UTF-8"?> <svg xmlns:cc="http://creativecommons.org/ns#" xmlns:dc="http://purl.org/dc/elements/1.1/" xmlns:rdf="http://www.w3.org/1999/02/22-rdf-syntax-ns#" xmlns:svg="http://www.w3.org/2000/svg" xmlns="http://www.w3.org/2000/svg" xmlns:xlink="http://www.w3.org/1999/xlink" version="1.1" id="svg2" x="0px" y="0px" viewBox="0 0 946.3 270.6" style="enable-background:new 0 0 946.3 270.6;" xml:space="preserve"> <style type="text/css"> .st0{fill:#413691;} .st1{fill:url(#path656_1_);} .st2{fill:#EF3138;} .st3{fill:#FFFFFF;} </style> <g id="g556" transform="translate(-493.10196,338.80726)"> <g> <g id="g558"> <g id="g564" transform="translate(258.4037,77.5896)"> <path id="path566" class="st0" d="M925.3-165c0-0.6-0.3-0.9-1-0.9H923c-0.1,0-0.1,0-0.1,0.1v1.5c0,0.1,0,0.1,0.1,0.1h1.3 C925-164.1,925.3-164.5,925.3-165 M921.9-160.6c-0.1,0-0.2-0.1-0.2-0.2v-5.8c0-0.1,0.1-0.2,0.2-0.2h2.4c1.4,0,2.2,0.7,2.2,1.9 c0,0.9-0.5,1.5-1.2,1.7l1.3,2.4c0.1,0.1,0,0.2-0.1,0.2h-0.8c-0.1,0-0.2-0.1-0.3-0.2l-1.2-2.3h-1.1c-0.1,0-0.1,0-0.1,0.1v2.2 c0,0.1-0.1,0.2-0.2,0.2L921.9-160.6L921.9-160.6z M928.5-163.7c0-2.7-2-4.7-4.6-4.7c-2.7,0-4.6,2-4.6,4.7s2,4.7,4.6,4.7 C926.5-159.1,928.5-161.1,928.5-163.7 M918.3-163.7c0-3.2,2.4-5.6,5.6-5.6c3.2,0,5.6,2.4,5.6,5.6c0,3.2-2.4,5.7-5.6,5.7 C920.7-158.1,918.3-160.5,918.3-163.7"></path> </g> <g id="g568" transform="translate(192.2154,102.6696)"> <path id="path570" class="st0" d="M382.2-357.3v86.1c0,3.8,0,9.3-5.2,9.3h-14.4v-39h-42.1v29.7c0,3.8,0.3,9.3-4.9,9.3h-14.7 V-348c0-3.8,0-9.3,5.2-9.3h14.4v41h42.1V-348c0-3.7-0.3-9.3,4.9-9.3H382.2z"></path> </g> <g id="g572" transform="translate(202.8442,94.5954)"> <path id="path574" class="st0" d="M442.5-295.4L429-335.5l-19.1,53l0.8,0.1c2.6-4.8,8.9-13.1,19.9-13.1h11.9V-295.4z M473.7-253.8h-17.2l-9-26.6H410l-6.5,19.6c-1.1,3.1-2.6,7-7.5,7h-14.3l30.7-87.5c1.1-3,2.6-7.9,7.8-7.9h23.3l32.4,92.3 C476.5-255.1,475.6-253.8,473.7-253.8"></path> </g> <g id="g576" transform="translate(227.6999,102.6696)"> <path id="path578" class="st0" d="M583.3-357.3L552-268.9c-0.7,2-1.9,7-6.8,7h-12l-17.9-50.8l-15.9,43.9c-0.7,2-1.9,7-6.8,7 h-13.1L447-354.2c-0.7-1.9,0.3-3.1,2.2-3.1h17.3l23.4,71.1l16.9-50.6l-6.1-17.4c-0.7-1.9,0.3-3.1,2.2-3.1h17.4l21.7,69.2 l18.9-62.3c1-3.1,2.6-6.9,7.4-6.9L583.3-357.3L583.3-357.3z"></path> </g> <g id="g580" transform="translate(235.8957,94.5954)"> <path id="path582" class="st0" d="M629.8-295.4l-13.5-40.1l-19.1,53l0.8,0.1c2.6-4.8,8.9-13.1,19.9-13.1h11.9V-295.4z M661-253.8h-17.2l-9-26.6h-37.5l-6.5,19.6c-1.1,3.1-2.6,7-7.5,7H569l30.7-87.5c1.1-3,2.6-7.9,7.8-7.9h23.3l32.4,92.3 C663.8-255.1,662.9-253.8,661-253.8"></path> </g> <g id="g584" transform="translate(242.5792,101.2797)"> <path id="path586" class="st0" d="M667.6-346.7c0-3.8,0-9.3,4.6-9.3h15v73.5v12.6c0,3.8,0,9.3-4.6,9.3h-15V-346.7z"></path> </g> <g id="g588" transform="translate(248.548,101.2797)"> <path id="path590" class="st0" d="M701.5-346.7c0-3.8,0-9.3,4.6-9.3h15v71.9v14.2c0,3.8,0,9.3-4.6,9.3h-15V-346.7z"></path> </g> <g id="g592" transform="translate(262.1203,94.5954)"> <path id="path594" class="st0" d="M778.4-295.4l-13.5-40.1l-19.1,53l0.8,0.1c2.6-4.8,8.9-13.1,19.9-13.1h11.9V-295.4z M809.6-253.8h-17.2l-9-26.6h-37.5l-6.5,19.6c-1.1,3.1-2.6,7-7.5,7h-14.3l30.7-87.5c1.1-3,2.6-7.9,7.8-7.9h23.3l32.4,92.3 C812.4-255.1,811.5-253.8,809.6-253.8"></path> </g> <g id="g596" transform="translate(281.1909,102.6696)"> <path id="path598" class="st0" d="M886.4-357.3v86.1c0,3.8,0,9.3-4.6,9.3h-12.3L822.9-325v53.8c0,3.8,0,9.3-5,9.3h-14V-348 c0-3.8,0-9.3,4.6-9.3h12.8l46.1,64.3v-55c0-3.8-0.8-9.3,4.5-9.3H886.4z"></path> </g> <g id="g600" transform="translate(209.0793,79.0833)"> <path id="path602" class="st0" d="M645.8-176.5l-7.5-21.7h-0.1l-7.6,21.7H645.8z M635.1-206.6c0.1-0.4,0.3-0.7,0.8-0.7h4.6 c0.5,0,0.8,0.3,0.9,0.7l16.3,46.3c0.1,0.4-0.1,0.7-0.5,0.7h-4.9c-0.5,0-0.8-0.2-0.9-0.7l-3.6-10.4h-19.3l-3.7,10.4 c-0.2,0.5-0.5,0.7-0.9,0.7H619c-0.4,0-0.6-0.3-0.5-0.7L635.1-206.6z"></path> </g> <g id="g604" transform="translate(213.1209,83.6074)"> <path id="path606" class="st0" d="M668.7-211.2c0-0.4,0.3-0.7,0.7-0.7h4.8c0.4,0,0.7,0.3,0.7,0.7v36.7v9.6 c0,0.4-0.3,0.7-0.7,0.7h-4.8c-0.4,0-0.7-0.3-0.7-0.7V-211.2z"></path> </g> <g id="g608" transform="translate(221.2968,81.6502)"> <path id="path610" class="st0" d="M715-196.2c0-5-3.3-7.9-8.8-7.9H695c-0.3,0-0.4,0.1-0.4,0.4v15c0,0.3,0.1,0.4,0.4,0.4h11.2 C711.7-188.2,715-191.2,715-196.2 M716-162.2c-0.5,0-0.7-0.2-0.9-0.7l-9.5-19.5H695c-0.3,0-0.4,0.1-0.4,0.4v19.1 c0,0.4-0.3,0.7-0.7,0.7h-4.8c-0.4,0-0.7-0.3-0.7-0.7v-46.3c0-0.4,0.3-0.7,0.7-0.7h17.3c8.9,0,14.9,5.5,14.9,13.7 c0,6.5-3.6,11.2-9.4,13l10.2,20.1c0.3,0.4,0.1,0.8-0.4,0.8L716-162.2L716-162.2z"></path> </g> <g id="g612" transform="translate(225.0544,83.6074)"> <path id="path614" class="st0" d="M736.3-211.2c0-0.4,0.3-0.7,0.7-0.7h4.8c0.4,0,0.7,0.3,0.7,0.7v40.8c0,0.3,0.1,0.4,0.4,0.4 h22.7c0.4,0,0.7,0.3,0.7,0.7v4.4c0,0.4-0.3,0.7-0.7,0.7H737c-0.4,0-0.7-0.3-0.7-0.7V-211.2z"></path> </g> <g id="g616" transform="translate(231.6629,83.6074)"> <path id="path618" class="st0" d="M773.8-211.2c0-0.4,0.3-0.7,0.7-0.7h4.8c0.4,0,0.7,0.3,0.7,0.7v33.9v12.4 c0,0.4-0.3,0.7-0.7,0.7h-4.8c-0.4,0-0.7-0.3-0.7-0.7V-211.2z"></path> </g> <g id="g620" transform="translate(235.8408,83.6074)"> <path id="path622" class="st0" d="M797.5-211.2c0-0.4,0.3-0.7,0.7-0.7h4.5c0.6,0,0.9,0.1,1.2,0.7l21.6,35.8h0.3v-35.8 c0-0.4,0.3-0.7,0.7-0.7h4.4c0.4,0,0.7,0.3,0.7,0.7v46.3c0,0.4-0.3,0.7-0.7,0.7h-4.5c-0.5,0-0.9-0.1-1.2-0.7l-21.7-35.6h-0.2 v35.6c0,0.4-0.3,0.7-0.7,0.7h-4.4c-0.4,0-0.7-0.3-0.7-0.7L797.5-211.2L797.5-211.2z"></path> </g> <g id="g624" transform="translate(244.1963,83.6074)"> <path id="path626" class="st0" d="M844.8-211.2c0-0.4,0.3-0.7,0.7-0.7h28.7c0.4,0,0.7,0.3,0.7,0.7v4.4c0,0.4-0.3,0.7-0.7,0.7 h-22.7c-0.3,0-0.4,0.1-0.4,0.4v14c0,0.3,0.1,0.4,0.4,0.4h19.3c0.4,0,0.7,0.3,0.7,0.7v4.4c0,0.4-0.3,0.7-0.7,0.7h-19.3 c-0.3,0-0.4,0.1-0.4,0.4v14.5c0,0.3,0.1,0.4,0.4,0.4h22.7c0.4,0,0.7,0.3,0.7,0.7v4.4c0,0.4-0.3,0.7-0.7,0.7h-28.7 c-0.4,0-0.7-0.3-0.7-0.7V-211.2z"></path> </g> <g id="g628" transform="translate(251.0892,77.3365)"> <path id="path630" class="st0" d="M883.9-163.1c-0.3-0.3-0.4-0.7-0.1-1.1l3.1-3.6c0.3-0.3,0.6-0.3,1-0.1 c3.1,2.5,7.9,4.9,13.3,4.9c6.6,0,10.5-3.3,10.5-8.1c0-4.1-2.3-6.8-10-7.8l-2.4-0.4c-9.3-1.3-14-5.7-14-13.2 c0-8.5,6.1-14,15.6-14c5.6,0,11,1.8,14.5,4.4c0.4,0.3,0.4,0.6,0.1,1l-2.4,3.9c-0.3,0.4-0.6,0.4-1,0.1c-3.9-2.4-7.4-3.6-11.5-3.6 c-5.8,0-9,3.2-9,7.7c0,4,2.7,6.7,10,7.6l2.3,0.3c9.3,1.3,14,5.5,14,13.3c0,8.3-5.9,14.4-17.4,14.4 C893.9-157.1,887.4-159.9,883.9-163.1"></path> </g> </g> </g> </g> <g> <g id="g638"> <g id="g644"> <g id="g646"> <linearGradient id="path656_1_" gradientUnits="userSpaceOnUse" x1="268.9051" y1="229.3396" x2="272.4885" y2="229.3396" gradientTransform="matrix(-1.7097 42.5667 42.5667 1.7097 -8511.9844 -11812.2461)"> <stop offset="0" style="stop-color:#D2068A"></stop> <stop offset="0.737" style="stop-color:#413691"></stop> <stop offset="1" style="stop-color:#413691"></stop> </linearGradient> <path id="path656" class="st1" d="M710.8,111.9c0,55.2,39.5,101,91.5,110.2l0,0c-0.4,4-0.9,7.7-1.5,10.7l0,0 c-3.6,17.7-15.7,33.9-22.2,37.8l0,0c17.5-1.5,31.4-6.7,39.7-15l0,0l0,0c-0.6,0-6.1-0.1-6.5-0.1l0,0c3.3-1.3,6.6-2.8,9.7-4.7l0,0 l0,0l0,0l0,0l0,0l0,0l0,0c1.2-10.3,0.8-22.6-1.9-37.6l0,0c-3.5-19.6-10.9-26.1-12-27.4l0,0c-0.1-0.1-0.1-0.2-0.1-0.2l0,0 c0-0.1,0.2-0.2,0.3-0.2l0,0c6.2-3.9,11.6-8.5,14.1-10.7l0,0c1.9-1.6,1.2-2.4-0.8-1.5l0,0c-5.2,2.4-13.8,5.4-24.7,6.8l0,0 c-9.6,1.2-21,1-33.4-1.4l0,0c0,0-8.7-1.3-7.4-10.1l0,0c0.3-2.5,1.6-5,2.6-7.5l0,0c0.3-0.8,1.1-3.2,0.7-5.1l0,0 c-0.1-0.5-0.7-1.4-1.1-1.9l0,0c-0.6-1-0.9-2.3-0.2-3.9l0,0c0.6-1.3,2.8-3.3,6.1-3.6l0,0c1.6-0.1,3.3-0.1,5.1-0.1l0,0 c2.3,0,4.6,0,6.5-0.3l0,0c5-0.9,8-4.3,7.5-5.4l0,0c-0.4-0.7-4.9,0.2-6.4,0.5l0,0c-2.2,0.4-6.3-1.4-8.5-2.1l0,0 c-3.3-1.1-5.1-1.9-7.9-0.7l0,0c-1.8,0.8-3.2,4.4-3.7,2.7l0,0c-0.2-0.8,0.2-1.6,0.8-2.5l0,0c0.6-0.9,1.8-2.5,1.9-3.4l0,0 c0.2-1,0.4-2.5-2.5-4.6l0,0c-2.1-1.5-3.5-2.6-4.3-3.5l0,0c-2.8-2.8-3.3-5.7,2.1-10.2l0,0c3.8-3.2,12.2-11.9,14.7-17.2l0,0 c0.4-0.8,2.4-4.1,0.2-7.5l0,0c-1.7-2.6-2-3-2.5-3.9l0,0c-1.2-2.4-0.4-4.5,1.7-7.7l0,0c1-1.5,1.8-3.4,3.9-10l0,0 c2.4-7.4,6.1-13.9,11.3-19.4l0,0l0,0c0.4-1.1,1-9.6,5.9-17.5l0,0c1.6-3.1,3.8-6.4,6.7-9.6l0,0c2-2.1,5.1-4.6,9.2-7l0,0 c4.1-2.4,9.2-4.7,15.2-6.5l0,0c7.1-2.1,15.4-3.5,24.7-3.4l0,0c6.9,0.1,13.5,0.6,21.3,2.7l0,0l0,0l0,0c0,0,0.4,0.1,0.9,0.3l0,0 C853.5,3.6,837.9,0,821.4,0l0,0C760.3,0,710.8,50.1,710.8,111.9 M755,125.6c-0.1,0.4,0.2,0.6,0.6,0.8l0,0c2,1,3,1.4,6.7,3.6l0,0 c4.3,2.6,6.2,0.4,7.1-1.2l0,0c0.3-0.4,0.6-2.3,0.2-2.9l0,0c-0.4-0.6-1.2-0.2-2,0.6l0,0c-0.9,0.9-3.2,0.4-4,0.3l0,0 c-0.8-0.1-4.3-1-6.5-1.4l0,0c-0.4-0.1-0.8-0.1-1.1-0.1l0,0C755.3,125.3,755,125.4,755,125.6"></path> </g> </g> </g> <g> <g id="g660"> <g id="g666" transform="translate(227.0925,148.4672)"> <path id="path668" class="st0" d="M578.2-74.5c-0.6-0.2-15.2-3.4-20.1-3.1c-4.9,0.3-9,3.1-11.6,6.1c-1.4,1.6-2,3.2-2.3,4.5 c-0.2,2.3,1.5,3.5,3.4,2.8c1.4-0.5,2.5-1.5,4-3.7c0.9-1.4,1.5-3.1,2.9-4c2.3-1.5,6.3-1.8,12.9-1.7c5,0.1,9.1,0.4,10,0.4 C579.4-73.1,578.9-74.3,578.2-74.5"></path> </g> <g id="g670" transform="translate(225.3193,145.6186)"> <path id="path672" class="st0" d="M571.5-58.1c-2.7-1.6-6.4-1.5-7.1-1.7c-0.7-0.1-0.9-0.9,0.2-1.4c1.5-0.7,4.3-0.1,4.4-0.6 c0.1-0.4-0.5-1.4-2.7-2.2c-1.1-0.4-3.3-0.7-4.9-0.6c-4.5,0.5-6.9,3.3-7.4,3.8s-1.3,1.3-1.5,2.5c-0.3,1.6,0.7,2.8,1.7,4.3 c0.5,0.8,0.9,1.4,1.1,1.9c0.2,0.8,0.1,1.2-0.6,1.7c-0.8,0.6-0.3,1.7,1.3,1.3c1.8-0.5,2.8-1,4.1-2.2c1.9-1.6,1.9-2.7,3.2-4 s5.6-1.3,7.8-1C573.6-55.8,574.2-56.5,571.5-58.1"></path> </g> <g id="g674" transform="translate(253.8747,141.247)"> <path id="path676" class="st0" d="M679.3-32.8c0-5-1.4-14.9-1.7-17.1c-0.6-6-2-14.4-6.7-26c-5-12.6-9.1-21.5-21.5-33.7 c-14.5-14.3-31.7-20.3-35.8-21.5c-0.6-0.2-1-0.3-1-0.3l0,0c-7.8-2.1-14.4-2.6-21.3-2.7c-24.6-0.4-42.7,10-49.1,16.8 c-3,3.2-5.1,6.5-6.7,9.6c-5,7.9-5.6,16.5-5.9,17.5l0,0c0.4-0.3,6.3-6.9,13-8.8c1.6,2.7,5.1,6.3,11.9,9.8 c7,3.6,14.7,5.6,14.7,5.6s9.6,2.8,19.3,6.2c7.8,2.8,15.8,12.8,15.8,14.9c0,4.3-4.2,8.3-8.4,21.3c-4.5,13.9-6,27.1-4.6,42.5 c0,0,0,0,0,0.1v0.1c0.9,9.2,2.9,19.3,5.9,30.8l0,0c2.5,9.3,3.3,18.6,3,27.5c-2.2,22.9-16.1,40.1-32.8,49.7l0,0l0,0 c-3.2,1.8-6.4,3.4-9.8,4.7c0.5,0,6,0.1,6.5,0.1c14-0.2,33.9-2.9,50.9-20.7c5.9-6.2,10.5-12.6,13.4-18.7 c1.2-2.5,6.2-11.5,9.1-29.4c0.4-2.4,1.6-10.1,1.6-10.1s0.8,5.5,0.9,10.4c0.1,6.7,0.4,15.1-3.6,27.9c1.4-0.3,8-5.2,15.8-15.9 c2.9-3.9,5.5-7.9,7.9-12.1C671.7,28.1,679.7,7.1,679.3-32.8"></path> </g> <g id="g678" transform="translate(241.1352,149.4268)"> <path id="path680" class="st2" d="M631.2-80.1c-0.1,0.8,0.2,1,0.9,0.5c3.1-2.5,8.1-6.2,15-7.5c8.3-1.5,12.9-5.5,15.1-10.1 c1.3-2.7,2.3-7.7,6.3-10.6c1.3-0.9,0-1.3-1.1-1.1c-1,0.2-6.5,1.7-10,5.5c-2.4-2.5-2.2-6-1.9-8c0.2-0.6-0.3-1-1.1-0.4 c-2.7,2.2-4.5,5.1-5.1,7.1c0,0-2.2-1.5-1-5.4c0.2-0.6-0.3-0.4-0.5-0.2c-3.9,2.8-3.5,7.1-3.6,7.6c0,0-3.9-2.2-9.9-3 c-1-4-7.4-5.1-8.5-1c-1,3.7,5.2,6.5,7.9,3.5c0,0,8.5,0.9,16,8.4c0.8,0.8,1,1.4,0.5,1.8c-0.3,0.3-1.4-0.3-2.8-1.3 c-1.5-1-11.7-7.6-20.6-3.1c-0.4,0.2-0.5,0.6-0.1,0.7c1.7,0.5,5.4,1.8,6.3,4.2c-2.4,0.6-6.2,2.1-8.9,7.7c-0.7,1.5,0.2,1.7,1,1.1 c0.9-0.7,6.5-3.7,8.5-3.5C633.8-87,631.9-84.3,631.2-80.1 M701.8-122.3c-0.3,2.8,0.5,10.8,2.7,18.2c2.3,7.8-1.8,14.8-8.8,18.8 c-2.2-3.4-6.7-5.1-10.6-5.3c-2.3-0.1-1.7,0.9-0.5,1.3c16.4,6.9,10.6,26,8.5,30.1c-2.2,4.1-1.6,9.6-1.6,9.6 c-5.1-1.5-9.8-0.5-13.9,0.1c-8.1,1.3-13.6-0.2-17.8-2.1c-3.4-1.5-8.7-5.1-9.5-11.7c-0.2-1.2-0.9-2.1-1.4,0.2 c-0.8,3.9-0.2,8.6,2.5,11.6c-3,14.9-32.3,13.8-32.3,13.8c-1.9-6.4-15.3-8.4-18.3-17.8c-1.4-4.4-0.3-9.1-0.3-9.1 c7.7,1.8,12.1-1.8,14.6-4.9c1.4-1.8,0.3-1.9-0.7-1.2c-9.7,6.1-18.7,0-20.6-8.6c-2.5-9.5-11.7-12.6-11.7-12.6 c6.7-4.2,4.8-11.5,8.3-17.7c9.2-16.3,22.3-11.4,22.3-11.4c1.3,3.9,5.1,6.7,8.9,7.8c2.2,0.7,1.9-0.4,0.9-1.2 c-9.3-6.7-7-17.4,0.3-22.3c12.8-8.7,15-12.5,15-12.5c2.3,1.8,8.6,3.3,15.1,3.9c14.7,1.3,18.1,8.9,18.4,11.9 c-1.7,0.9-4.7,3.7-6.1,8c-0.7,2.2,0.4,1.9,1.2,0.9c5.7-7.8,12.7-6.3,19.3-3.3C689.8-125.8,695.8-121,701.8-122.3"></path> </g> </g> </g> </g> <path class="st3" d="M856.2,79.9c1.4-1.8,0.3-1.9-0.7-1.2c-9.7,6.1-18.7,0-20.6-8.6c-1.9-7.3-7.8-10.8-10.4-12 c-0.9-0.3-1.5-0.4-1.5-0.4s-7.7-2-14.7-5.6c-6.8-3.5-10.3-7.1-11.9-9.8c-6.2,1.7-11.6,7.4-12.8,8.6c0,0.2-0.1,0.3-0.1,0.4 c-5.2,5.5-8.9,12-11.3,19.4c-2.1,6.6-2.9,8.5-3.9,10c-2.1,3.2-2.9,5.3-1.7,7.7c0.5,0.9,0.8,1.3,2.5,3.9c2.2,3.4,0.2,6.7-0.2,7.5 c-2.5,5.3-10.9,14-14.7,17.2c-5.4,4.5-4.9,7.4-2.1,10.2c0.8,0.9,2.2,2,4.3,3.5c2.9,2.1,2.7,3.6,2.5,4.6c-0.1,0.9-1.3,2.5-1.9,3.4 c-0.6,0.9-1,1.7-0.8,2.5c0.5,1.7,1.9-1.9,3.7-2.7c2.8-1.2,4.6-0.4,7.9,0.7c2.2,0.7,6.3,2.5,8.5,2.1c1.5-0.3,6-1.2,6.4-0.5 c0.5,1.1-2.5,4.5-7.5,5.4c-1.9,0.3-4.2,0.3-6.5,0.3c-1.8,0-3.5,0-5.1,0.1c-3.3,0.3-5.5,2.3-6.1,3.6c-0.7,1.6-0.4,2.9,0.2,3.9 c0.4,0.5,1,1.4,1.1,1.9c0.4,1.9-0.4,4.3-0.7,5.1c-1,2.5-2.3,5-2.6,7.5c-1.3,8.8,7.4,10.1,7.4,10.1c12.4,2.4,23.8,2.6,33.4,1.4 c10.9-1.4,19.5-4.4,24.7-6.8c2-0.9,2.7-0.1,0.8,1.5c-2.5,2.2-7.9,6.8-14.1,10.7c-0.1,0-0.3,0.1-0.3,0.2c0,0,0,0.1,0.1,0.2 c1.1,1.3,8.5,7.8,12,27.4c2.7,14.9,3.1,27.1,1.9,37.4c16.6-9.6,30.4-26.8,32.6-49.6c0.3-8.9-0.5-18.2-3-27.5 c-3-11.5-5-21.6-5.9-30.8v-0.1c0-0.1,0-0.1,0-0.1c-1.3-14.5-0.1-27.1,3.9-40.2c-3.1-2.1-5.9-4.7-7.1-8.4c-1.4-4.4-0.3-9.1-0.3-9.1 C849.3,86.6,853.7,83,856.2,79.9z M769.4,128.8c-0.9,1.6-2.8,3.8-7.1,1.2c-3.7-2.2-4.7-2.6-6.7-3.6c-0.4-0.2-0.7-0.4-0.6-0.8 c0-0.2,0.3-0.3,1-0.3c0.3,0,0.7,0,1.1,0.1c2.2,0.4,5.7,1.3,6.5,1.4c0.8,0.1,3.1,0.6,4-0.3c0.8-0.8,1.6-1.2,2-0.6 C770,126.5,769.7,128.4,769.4,128.8z M796.4,89.3c-2.2-0.3-6.5-0.3-7.8,1c-1.3,1.3-1.3,2.4-3.2,4c-1.3,1.2-2.3,1.7-4.1,2.2 c-1.6,0.4-2.1-0.7-1.3-1.3c0.7-0.5,0.8-0.9,0.6-1.7c-0.2-0.5-0.6-1.1-1.1-1.9c-1-1.5-2-2.7-1.7-4.3c0.2-1.2,1-2,1.5-2.5 s2.9-3.3,7.4-3.8c1.6-0.1,3.8,0.2,4.9,0.6c2.2,0.8,2.8,1.8,2.7,2.2c-0.1,0.5-2.9-0.1-4.4,0.6c-1.1,0.5-0.9,1.3-0.2,1.4 c0.7,0.2,4.4,0.1,7.1,1.7C799.5,89.1,798.9,89.8,796.4,89.3z M804.5,75.3c-0.9,0-5-0.3-10-0.4c-6.6-0.1-10.6,0.2-12.9,1.7 c-1.4,0.9-2,2.6-2.9,4c-1.5,2.2-2.6,3.2-4,3.7c-1.9,0.7-3.6-0.5-3.4-2.8c0.3-1.3,0.9-2.9,2.3-4.5c2.6-3,6.7-5.8,11.6-6.1 c4.9-0.3,19.5,2.9,20.1,3.1C806,74.2,806.5,75.4,804.5,75.3z"></path> </svg> 